<?xml version="1.0" encoding="utf-8"?><svg xmlns="http://www.w3.org/2000/svg" xmlns:xlink="http://www.w3.org/1999/xlink"><symbol viewBox="0 0 76 76" id="box" xmlns="http://www.w3.org/2000/svg"><path d="M38 76c-.3 0-.7-.1-.9-.2l-36-18C.4 57.5 0 56.8 0 56V20.1c0-.3.1-.6.2-.9v-.1c.2-.4.5-.7.9-.9l18-9 18-9c.6-.3 1.2-.3 1.8 0l36 18c.4.2.7.5.9 1 .1.3.2.6.2.9V56c0 .8-.4 1.4-1.1 1.8l-36 18c-.2.1-.6.2-.9.2zm2-36.7v31.5l32-16V23.3l-15.1 7.5L40 39.3zM4 54.8l32 16V39.3l-32-16v31.5zm2.5-34.7L38 35.8 51.5 29 20 13.3 6.5 20.1zm18-9L56 26.8 69.5 20 38 4.3l-13.5 6.8zM29 58c-.3 0-.6-.1-.9-.2l-18-9c-.7-.3-1.1-1-1.1-1.8v-9c0-1.1.9-2 2-2 .3 0 .6.1.9.2l18 9c.7.3 1.1 1 1.1 1.8v9c0 1.1-.9 2-2 2zM13 45.8l14 7v-4.5l-14-7v4.5z"/></symbol><symbol viewBox="0 0 26 25" id="chat" xmlns="http://www.w3.org/2000/svg"><defs><filter id="ba" width="46" height="45" x="-10" y="-10" filterUnits="userSpaceOnUse"><feOffset dy="1" in="SourceGraphic" result="FeOffset1131Out"/><feGaussianBlur in="FeOffset1131Out" result="FeGaussianBlur1132Out" stdDeviation="0 0"/></filter><mask id="bb" width="2" height="2" x="-1" y="-1"><path d="M0 0h26v24H0z"/><path d="M6.966 23.285a.68.68 0 01-.672-.666l-.12-5.856-5.68-2.872a.679.679 0 01-.27-.98l.001-.002a.477.477 0 01.018-.025.67.67 0 01.258-.219L24.667.443a.668.668 0 01.95.376.688.688 0 01-.024.507l-9.06 21.384a.69.69 0 01-.12.198h-.001a.547.547 0 01-.025.027s-.001.001 0 0a.667.667 0 01-.45.2l-.02.001h-.008a.661.661 0 01-.387-.124l-5.12-3.57-2.916 3.595a.67.67 0 01-.52.248zm4.302-4.89l3.937 2.745-.177-7.216zm-3.752-1.743l.084 4.1 2.153-2.655.006-.007a.147.147 0 01.004-.005L19.39 6.643l-5.422 4.57a.636.636 0 01-.03.026zm8.819-4.28l.17 6.953 6.109-14.417zM2.84 13.557l3.903 1.974 4.314-3.636zM20.103 4.27L5.577 11.618l7.645-1.547z"/></mask></defs><g filter="url(#ba)"><path d="M6.966 23.285a.68.68 0 01-.672-.666l-.12-5.856-5.68-2.872a.679.679 0 01-.27-.98l.001-.002a.477.477 0 01.018-.025.67.67 0 01.258-.219L24.667.443a.668.668 0 01.95.376.688.688 0 01-.024.507l-9.06 21.384a.69.69 0 01-.12.198h-.001a.547.547 0 01-.025.027s-.001.001 0 0a.667.667 0 01-.45.2l-.02.001h-.008a.661.661 0 01-.387-.124l-5.12-3.57-2.916 3.595a.67.67 0 01-.52.248zm4.302-4.89l3.937 2.745-.177-7.216zm-3.752-1.743l.084 4.1 2.153-2.655.006-.007a.147.147 0 01.004-.005L19.39 6.643l-5.422 4.57a.636.636 0 01-.03.026zm8.819-4.28l.17 6.953 6.109-14.417zM2.84 13.557l3.903 1.974 4.314-3.636zM20.103 4.27L5.577 11.618l7.645-1.547z" mask="url(#bb)"/><path d="M6.966 23.285a.68.68 0 01-.672-.666l-.12-5.856-5.68-2.872a.679.679 0 01-.27-.98l.001-.002a.477.477 0 01.018-.025.67.67 0 01.258-.219L24.667.443a.668.668 0 01.95.376.688.688 0 01-.024.507l-9.06 21.384a.69.69 0 01-.12.198h-.001a.547.547 0 01-.025.027s-.001.001 0 0a.667.667 0 01-.45.2l-.02.001h-.008a.661.661 0 01-.387-.124l-5.12-3.57-2.916 3.595a.67.67 0 01-.52.248zm4.302-4.89l3.937 2.745-.177-7.216zm-3.752-1.743l.084 4.1 2.153-2.655.006-.007a.147.147 0 01.004-.005L19.39 6.643l-5.422 4.57a.636.636 0 01-.03.026zm8.819-4.28l.17 6.953 6.109-14.417zM2.84 13.557l3.903 1.974 4.314-3.636zM20.103 4.27L5.577 11.618l7.645-1.547z"/></g><path d="M6.966 23.285a.68.68 0 01-.672-.666l-.12-5.856-5.68-2.872a.679.679 0 01-.27-.98l.001-.002a.477.477 0 01.018-.025.67.67 0 01.258-.219L24.667.443a.668.668 0 01.95.376.688.688 0 01-.024.507l-9.06 21.384a.69.69 0 01-.12.198h-.001a.547.547 0 01-.025.027s-.001.001 0 0a.667.667 0 01-.45.2l-.02.001h-.008a.661.661 0 01-.387-.124l-5.12-3.57-2.916 3.595a.67.67 0 01-.52.248zm4.302-4.89l3.937 2.745-.177-7.216zm-3.752-1.743l.084 4.1 2.153-2.655.006-.007a.147.147 0 01.004-.005L19.39 6.643l-5.422 4.57a.636.636 0 01-.03.026zm8.819-4.28l.17 6.953 6.109-14.417zM2.84 13.557l3.903 1.974 4.314-3.636zM20.103 4.27L5.577 11.618l7.645-1.547z"/><path d="M6.966 23.285a.68.68 0 01-.672-.666l-.12-5.856-5.68-2.872a.679.679 0 01-.27-.98l.001-.002a.477.477 0 01.018-.025.67.67 0 01.258-.219L24.667.443a.668.668 0 01.95.376.688.688 0 01-.024.507l-9.06 21.384a.69.69 0 01-.12.198h-.001a.547.547 0 01-.025.027s-.001.001 0 0a.667.667 0 01-.45.2l-.02.001h-.008a.661.661 0 01-.387-.124l-5.12-3.57-2.916 3.595a.67.67 0 01-.52.248zm4.302-4.89l3.937 2.745-.177-7.216zm-3.752-1.743l.084 4.1 2.153-2.655.006-.007a.147.147 0 01.004-.005L19.39 6.643l-5.422 4.57a.636.636 0 01-.03.026zm8.819-4.28l.17 6.953 6.109-14.417zM2.84 13.557l3.903 1.974 4.314-3.636zM20.103 4.27L5.577 11.618l7.645-1.547z"/></symbol><symbol viewBox="0 0 23 23" id="clock" xmlns="http://www.w3.org/2000/svg"><path d="M11.5-.012c6.35 0 11.5 5.149 11.5 11.5s-5.15 11.5-11.5 11.5c-6.352 0-11.5-5.149-11.5-11.5s5.148-11.5 11.5-11.5zM2.118 11.512a9.288 9.288 0 009.289 9.288 9.288 9.288 0 100-18.576 9.288 9.288 0 00-9.289 9.288zm11.973 2.285H10.58a.875.875 0 01-.876-.876V7.595a.876.876 0 111.751 0v4.45h2.636a.876.876 0 010 1.752z"/></symbol><symbol viewBox="0 0 76 76" id="clock-circled" xmlns="http://www.w3.org/2000/svg"><path d="M38 76C17 76 0 59 0 38S17 0 38 0s38 17 38 38-17 38-38 38zm0-72C19.3 4 4 19.3 4 38s15.3 34 34 34 34-15.3 34-34S56.7 4 38 4zm0 63C22 67 9 54 9 38S22 9 38 9s29 13 29 29-13 29-29 29zm0-54c-13.8 0-25 11.2-25 25s11.2 25 25 25 25-11.2 25-25-11.2-25-25-25zm9 27h-9c-1.1 0-2-.9-2-2v-9c0-1.1.9-2 2-2s2 .9 2 2v7h7c1.1 0 2 .9 2 2s-.9 2-2 2z"/></symbol><symbol viewBox="0 0 84 51" id="cloud" xmlns="http://www.w3.org/2000/svg"><path d="M8.2 51c-.4 0-.8-.1-1.1-.3C-.1 45.8-2 36.1 2.8 28.8c2.3-3.5 5.8-5.9 9.9-6.7 1.4-.3 2.9-.4 4.3-.3-.1-.3-.1-.5 0-.8 1.1-6.5 4.7-12.1 10.1-15.9 5.4-3.8 11.8-5.2 18.3-4C54 2.7 61 8.8 63.9 16.7c.3-.1.6-.2.9-.2 6.1.3 11.6 3.3 15.1 8.3 3 4.2 4.1 9.2 3.2 13.9-.9 4.6-3.7 8.8-7.9 11.8-.3.2-.7.4-1.1.4L8.2 51zm7.6-25.2c-.8 0-1.5.1-2.3.2-3 .6-5.7 2.4-7.4 5-3.5 5.3-2.2 12.3 2.7 16l64.5-.1c3.1-2.4 5.2-5.5 5.8-8.9.7-3.7-.2-7.4-2.6-10.8-2.7-3.9-6.9-6.2-11.6-6.5.3 1.5.4 3 .5 4.6 0 1.1-.9 2-2 2s-2-.9-2-2c-.1-9.9-7.1-18.4-16.9-20.1-5.4-1-10.8.2-15.3 3.4-4.5 3.1-7.5 7.9-8.4 13.3-.1.3-.2.6-.3.8 1.4.4 2.6 1.1 3.9 1.9.9.6 1.2 1.9.6 2.8-.6.9-1.8 1.2-2.8.6-1.9-1.5-4.1-2.2-6.4-2.2zm38.3-2.7c-1.1 0-1.9-.8-2-1.9-.2-4.9-4.4-8.6-9.2-8.4-1.1 0-2-.8-2.1-1.9-.1-1.1.8-2 1.9-2.1 7.1-.3 13 5.1 13.4 12.2.1 1.1-.8 2.1-2 2.1.1 0 0 0 0 0z"/></symbol><symbol viewBox="0 0 21 27" id="doc" xmlns="http://www.w3.org/2000/svg"><path d="M19.6 26H1.5c-.4 0-.7-.3-.7-.7V.7c0-.4.3-.7.7-.7h12.1c.2 0 .3.1.5.2l6.1 6.2c.1.1.2.3.2.5v18.5c-.1.3-.4.6-.8.6zM2.1 24.6h16.8V7.5h-5.4c-.4 0-.7-.3-.7-.7V1.4H2.1v23.2zM14.2 6.2H18l-3.8-3.8v3.8zm2.4 14.7H4.5c-.4 0-.7-.3-.7-.7 0-.4.3-.7.7-.7h12.1c.4 0 .7.3.7.7 0 .4-.3.7-.7.7zm0-3.1H4.5c-.4 0-.7-.3-.7-.7 0-.4.3-.7.7-.7h12.1c.4 0 .7.3.7.7 0 .4-.3.7-.7.7zm-6.1-3.1h-6c-.4 0-.7-.3-.7-.7 0-.4.3-.7.7-.7h6.1c.4 0 .7.3.7.7-.1.4-.4.7-.8.7zm-.4-7.2H4.5c-.4 0-.7-.3-.7-.7v-3c0-.4.3-.7.7-.7h5.6c.4 0 .7.3.7.7v3.1c-.1.3-.4.6-.7.6zM5.2 6.2h4.2V4.4H5.2v1.8z"/></symbol><symbol viewBox="0 0 6 12" id="fb" xmlns="http://www.w3.org/2000/svg"><path d="M4 12H1.3V6H0V3.9h1.3V2.7C1.3 1 2.1 0 4.2 0H6v2.1H4.9c-.9 0-.9.3-.9.8v1h2L5.8 6H4v6z"/></symbol><symbol viewBox="0 0 48 51" id="logo" xmlns="http://www.w3.org/2000/svg"><path d="M46.1 46.9c.1.9-.2 1.9-1 2.5-.7.6-1.7.8-2.6.4L32 46.1c-2.5.9-5.2 1.3-7.9 1.3-7.3 0-14.4-3.3-18.9-8.9-4-5-5.8-11.2-5.1-17.5.8-6.3 3.9-11.9 9-15.9C13.3 1.8 18.6 0 24 0c7.4 0 14.2 3.3 18.8 9 6.3 7.8 6.9 18.6 1.7 27.1l1.6 10.8zM39.4 34c4.6-6.7 4.2-15.4-.8-21.7C35 7.9 29.7 5.4 24 5.4c-4.2 0-8.2 1.4-11.5 4-3.9 3.1-6.3 7.4-6.9 12.3-.6 4.8.8 9.6 3.9 13.4C13 39.4 18.4 42 24.1 42c2.3 0 4.6-.4 6.8-1.3.5-.2 1.1-.2 1.7-.1.2 0 .4.1.6.1l6.9 2.5-1-6.8c-.3-.8-.2-1.7.3-2.4zM23.1 10.7c.6 1.3 0 2.9-1.4 3.5-3.4 1.5-6 4.3-7.2 7.8-.3 1.2-1.3 2-2.5 2-.3 0-.6 0-.8-.1-.7-.2-1.2-.7-1.6-1.3-.3-.6-.4-1.4-.2-2 1.6-4.9 5.3-9 10.1-11.1.3-.2.7-.2 1.1-.2 1.1-.2 2.1.5 2.5 1.4z"/></symbol><symbol viewBox="0 0 13 9" id="mail" xmlns="http://www.w3.org/2000/svg"><path d="M13 9V.6L9 3.9 13 9zM6.5 5.3L13 0H0l6.5 5.3zM4 3.9L0 .6V9l4-5.1zm.3.3L.5 9h12L8.7 4.2 6.5 6 4.3 4.2z"/></symbol><symbol viewBox="0 0 11 17" id="map" xmlns="http://www.w3.org/2000/svg"><path d="M2.3 5.4C2.3 3.5 3.7 2 5.5 2c1.8 0 3.2 1.5 3.2 3.4S7.3 8.8 5.5 8.8 2.3 7.2 2.3 5.4zM0 5.8c0 1.4 1.6 4.4 1.6 4.4L5.5 17l3.6-6.8s1.9-3 1.9-4.4C11 2.6 8.5 0 5.5 0S0 2.6 0 5.8z"/></symbol><symbol viewBox="0 0 9 9" id="rss" xmlns="http://www.w3.org/2000/svg"><path d="M0 3.1c3.3 0 5.9 2.7 5.9 5.9H4.2c0-1.1-.4-2.2-1.2-3-.8-.8-1.9-1.2-3-1.2V3.1zM0 0c5 0 9 4 9 9H7.3C7.3 5 4 1.7 0 1.7V0zm2.4 7.8c0 .7-.5 1.2-1.2 1.2S0 8.5 0 7.8s.5-1.2 1.2-1.2 1.2.5 1.2 1.2z"/></symbol><symbol viewBox="0 0 26 18" id="tw" xmlns="http://www.w3.org/2000/svg"><path d="M26 8.3c-.9.2-2.2 0-2.9-.3 1.5-.1 2.5-.8 2.8-1.7-.5.3-2.2.7-3.1.3 0-.2-.1-.4-.1-.6-.7-2.5-3-4.6-5.5-4.3.2-.1.4-.2.6-.2.3-.1 1.9-.4 1.6-.9-.2-.5-2.2.4-2.5.5.5-.2 1.3-.5 1.4-1.1-.8.1-1.5.4-2 1 .2-.2.4-.5.4-.8-2 1.3-3.1 3.8-4.1 6.3-.7-.7-1.4-1.3-2-1.6C8.9 4 6.9 3.1 3.9 2c-.1 1 .5 2.3 2.2 3.2-.4 0-1.1.1-1.6.2.2 1.2.9 2.2 2.9 2.6-.9.1-1.4.3-1.8.7.4.9 1.4 1.8 3.2 1.6-2 .9-.8 2.5.8 2.2-2.8 2.9-7.1 2.7-9.6.3 6.5 9 20.8 5.3 22.9-3.3 1.6 0 2.5-.6 3.1-1.2z"/></symbol><symbol viewBox="0 0 26 27" id="web" xmlns="http://www.w3.org/2000/svg"><path d="M12.8 26C5.7 26 0 20.2 0 13S5.7 0 12.8 0s12.8 5.8 12.8 13-5.8 13-12.8 13zm5.4-6c-.9 2-2 3.4-3 4.4 2-.4 3.9-1.4 5.3-2.8-.7-.6-1.5-1.1-2.3-1.6zM5 21.6c1.5 1.4 3.4 2.4 5.4 2.8-1-1-2.2-2.4-3.1-4.5-.7.4-1.5 1-2.3 1.7zm8.5-3.1V24c1-.8 2.4-2.2 3.5-4.6-1.2-.5-2.3-.8-3.5-.9zm-4.9.8c1 2.5 2.6 4 3.5 4.8v-5.6c-1.2 0-2.4.3-3.5.8zm10-.5c1.2.6 2.2 1.3 2.8 1.8 1.7-1.9 2.6-4.4 2.8-6.9h-4.7c-.1 2-.4 3.6-.9 5.1zM1.4 13.7c.1 2.5 1.1 4.9 2.7 6.9.8-.8 1.8-1.4 2.8-2-.4-1.4-.7-3-.8-4.9H1.4zm12.1 3.5c1.4.1 2.8.5 3.9 1 .4-1.3.7-2.8.8-4.5h-4.7v3.5zm-6.1-3.5c.1 1.6.3 3.1.7 4.3 1.3-.5 2.6-.8 4-.9v-3.4H7.4zm12.1-1.4h4.7c-.1-2.5-1.1-4.9-2.7-6.9-.8.8-1.8 1.4-2.8 2 .4 1.4.7 3 .8 4.9zm-6 0h4.7c-.1-1.6-.3-3.1-.7-4.3-1.3.5-2.6.8-4 .9v3.4zm-6.1 0h4.7V8.8c-1.4-.1-2.8-.5-3.9-1-.4 1.3-.7 2.8-.8 4.5zm-6 0h4.7c.1-2 .4-3.7.9-5.1-1-.5-2-1.1-2.9-1.8-1.6 1.9-2.6 4.4-2.7 6.9zM13.5 1.9v5.6c1.2 0 2.4-.3 3.5-.8-1-2.5-2.6-4-3.5-4.8zM8.6 6.6c1.1.5 2.3.8 3.5.9V1.9c-1 .8-2.4 2.3-3.5 4.7zm6.5-5c1 1 2.2 2.4 3.1 4.5.8-.4 1.5-1 2.3-1.7C19 3 17.2 2.1 15.1 1.6zm-10 2.8C5.8 5 6.6 5.5 7.4 6c.9-2 2-3.4 3-4.4-2 .5-3.8 1.4-5.3 2.8z"/></symbol></svg>