<?xml version="1.0" encoding="utf-8"?>
<!-- Generator: Adobe Illustrator 24.0.1, SVG Export Plug-In . SVG Version: 6.00 Build 0)  -->
<svg version="1.1" id="Слой_1" xmlns="http://www.w3.org/2000/svg" xmlns:xlink="http://www.w3.org/1999/xlink" x="0px" y="0px"
	 viewBox="0 0 48 51" style="enable-background:new 0 0 48 51;" xml:space="preserve">
<style type="text/css">
	.st0{fill:#8038C2;}
	.st1{fill:url(#SVGID_1_);}
</style>
<path class="st0" d="M46.1,46.9c0.1,0.9-0.2,1.9-1,2.5c-0.7,0.6-1.7,0.8-2.6,0.4L32,46.1c-2.5,0.9-5.2,1.3-7.9,1.3
	c-7.3,0-14.4-3.3-18.9-8.9c-4-5-5.8-11.2-5.1-17.5C0.9,14.7,4,9.1,9.1,5.1C13.3,1.8,18.6,0,24,0c7.4,0,14.2,3.3,18.8,9
	c6.3,7.8,6.9,18.6,1.7,27.1L46.1,46.9z M39.4,34c4.6-6.7,4.2-15.4-0.8-21.7C35,7.9,29.7,5.4,24,5.4c-4.2,0-8.2,1.4-11.5,4
	c-3.9,3.1-6.3,7.4-6.9,12.3C5,26.5,6.4,31.3,9.5,35.1c3.5,4.3,8.9,6.9,14.6,6.9c2.3,0,4.6-0.4,6.8-1.3c0.5-0.2,1.1-0.2,1.7-0.1
	c0.2,0,0.4,0.1,0.6,0.1l6.9,2.5l-1-6.8C38.8,35.6,38.9,34.7,39.4,34L39.4,34z M23.1,10.7c0.6,1.3,0,2.9-1.4,3.5c0,0,0,0,0,0
	c-3.4,1.5-6,4.3-7.2,7.8C14.2,23.2,13.2,24,12,24c-0.3,0-0.6,0-0.8-0.1c-0.7-0.2-1.2-0.7-1.6-1.3c-0.3-0.6-0.4-1.4-0.2-2
	c1.6-4.9,5.3-9,10.1-11.1c0.3-0.2,0.7-0.2,1.1-0.2C21.7,9.1,22.7,9.8,23.1,10.7L23.1,10.7z"/>
<linearGradient id="SVGID_1_" gradientUnits="userSpaceOnUse" x1="10.7058" y1="0.2683" x2="42.7058" y2="50.2683" gradientTransform="matrix(1 0 0 -1 0 52)">
	<stop  offset="0" style="stop-color:#000000;stop-opacity:0.3"/>
	<stop  offset="1" style="stop-color:#FFFFFF;stop-opacity:0.3"/>
</linearGradient>
<path class="st1" d="M46.1,46.9c0.1,0.9-0.2,1.9-1,2.5c-0.7,0.6-1.7,0.8-2.6,0.4L32,46.1c-2.5,0.9-5.2,1.3-7.9,1.3
	c-7.3,0-14.4-3.3-18.9-8.9c-4-5-5.8-11.2-5.1-17.5C0.9,14.7,4,9.1,9.1,5.1C13.3,1.8,18.6,0,24,0c7.4,0,14.2,3.3,18.8,9
	c6.3,7.8,6.9,18.6,1.7,27.1L46.1,46.9z M39.4,34c4.6-6.7,4.2-15.4-0.8-21.7C35,7.9,29.7,5.4,24,5.4c-4.2,0-8.2,1.4-11.5,4
	c-3.9,3.1-6.3,7.4-6.9,12.3C5,26.5,6.4,31.3,9.5,35.1c3.5,4.3,8.9,6.9,14.6,6.9c2.3,0,4.6-0.4,6.8-1.3c0.5-0.2,1.1-0.2,1.7-0.1
	c0.2,0,0.4,0.1,0.6,0.1l6.9,2.5l-1-6.8C38.8,35.6,38.9,34.7,39.4,34L39.4,34z M23.1,10.7c0.6,1.3,0,2.9-1.4,3.5c0,0,0,0,0,0
	c-3.4,1.5-6,4.3-7.2,7.8C14.2,23.2,13.2,24,12,24c-0.3,0-0.6,0-0.8-0.1c-0.7-0.2-1.2-0.7-1.6-1.3c-0.3-0.6-0.4-1.4-0.2-2
	c1.6-4.9,5.3-9,10.1-11.1c0.3-0.2,0.7-0.2,1.1-0.2C21.7,9.1,22.7,9.8,23.1,10.7L23.1,10.7z"/>
</svg>
