<?xml version="1.0" encoding="utf-8"?><svg xmlns="http://www.w3.org/2000/svg" xmlns:xlink="http://www.w3.org/1999/xlink"><symbol viewBox="0 0 48 51" id="logo" xmlns="http://www.w3.org/2000/svg"><path d="M46.1 46.9c.1.9-.2 1.9-1 2.5-.7.6-1.7.8-2.6.4L32 46.1c-2.5.9-5.2 1.3-7.9 1.3-7.3 0-14.4-3.3-18.9-8.9-4-5-5.8-11.2-5.1-17.5.8-6.3 3.9-11.9 9-15.9C13.3 1.8 18.6 0 24 0c7.4 0 14.2 3.3 18.8 9 6.3 7.8 6.9 18.6 1.7 27.1l1.6 10.8zM39.4 34c4.6-6.7 4.2-15.4-.8-21.7C35 7.9 29.7 5.4 24 5.4c-4.2 0-8.2 1.4-11.5 4-3.9 3.1-6.3 7.4-6.9 12.3-.6 4.8.8 9.6 3.9 13.4C13 39.4 18.4 42 24.1 42c2.3 0 4.6-.4 6.8-1.3.5-.2 1.1-.2 1.7-.1.2 0 .4.1.6.1l6.9 2.5-1-6.8c-.3-.8-.2-1.7.3-2.4zM23.1 10.7c.6 1.3 0 2.9-1.4 3.5-3.4 1.5-6 4.3-7.2 7.8-.3 1.2-1.3 2-2.5 2-.3 0-.6 0-.8-.1-.7-.2-1.2-.7-1.6-1.3-.3-.6-.4-1.4-.2-2 1.6-4.9 5.3-9 10.1-11.1.3-.2.7-.2 1.1-.2 1.1-.2 2.1.5 2.5 1.4z" fill="#8038c2"/><linearGradient id="aa" gradientUnits="userSpaceOnUse" x1="10.706" y1=".268" x2="42.706" y2="50.268" gradientTransform="matrix(1 0 0 -1 0 52)"><stop offset="0" stop-opacity=".3"/><stop offset="1" stop-color="#fff" stop-opacity=".3"/></linearGradient><path d="M46.1 46.9c.1.9-.2 1.9-1 2.5-.7.6-1.7.8-2.6.4L32 46.1c-2.5.9-5.2 1.3-7.9 1.3-7.3 0-14.4-3.3-18.9-8.9-4-5-5.8-11.2-5.1-17.5.8-6.3 3.9-11.9 9-15.9C13.3 1.8 18.6 0 24 0c7.4 0 14.2 3.3 18.8 9 6.3 7.8 6.9 18.6 1.7 27.1l1.6 10.8zM39.4 34c4.6-6.7 4.2-15.4-.8-21.7C35 7.9 29.7 5.4 24 5.4c-4.2 0-8.2 1.4-11.5 4-3.9 3.1-6.3 7.4-6.9 12.3-.6 4.8.8 9.6 3.9 13.4C13 39.4 18.4 42 24.1 42c2.3 0 4.6-.4 6.8-1.3.5-.2 1.1-.2 1.7-.1.2 0 .4.1.6.1l6.9 2.5-1-6.8c-.3-.8-.2-1.7.3-2.4zM23.1 10.7c.6 1.3 0 2.9-1.4 3.5-3.4 1.5-6 4.3-7.2 7.8-.3 1.2-1.3 2-2.5 2-.3 0-.6 0-.8-.1-.7-.2-1.2-.7-1.6-1.3-.3-.6-.4-1.4-.2-2 1.6-4.9 5.3-9 10.1-11.1.3-.2.7-.2 1.1-.2 1.1-.2 2.1.5 2.5 1.4z" fill="url(#aa)"/></symbol></svg>