<?xml version="1.0" encoding="utf-8"?>
<!-- Generator: Adobe Illustrator 24.0.1, SVG Export Plug-In . SVG Version: 6.00 Build 0)  -->
<svg version="1.1" id="Слой_1" xmlns="http://www.w3.org/2000/svg" xmlns:xlink="http://www.w3.org/1999/xlink" x="0px" y="0px"
	 viewBox="0 0 76 76" style="enable-background:new 0 0 76 76;" xml:space="preserve">
<style type="text/css">
	.st0{fill:#6D6D6D;}
</style>
<path class="st0" d="M38,76L38,76c-0.3,0-0.7-0.1-0.9-0.2l-36-18C0.4,57.5,0,56.8,0,56V20.1c0-0.3,0.1-0.6,0.2-0.9l0-0.1
	c0.2-0.4,0.5-0.7,0.9-0.9l18-9c0,0,0,0,0,0l18-9c0.6-0.3,1.2-0.3,1.8,0l36,18c0.4,0.2,0.7,0.5,0.9,1c0.1,0.3,0.2,0.6,0.2,0.9V56
	c0,0.8-0.4,1.4-1.1,1.8l-36,18C38.7,75.9,38.3,76,38,76L38,76L38,76z M40,39.3v31.5l32-16V23.3l-15.1,7.5c0,0,0,0,0,0L40,39.3z
	 M4,54.8l32,16V39.3l-32-16V54.8z M6.5,20.1L38,35.8L51.5,29L20,13.3L6.5,20.1z M24.5,11.1L56,26.8l13.5-6.8L38,4.3L24.5,11.1z
	 M29,58c-0.3,0-0.6-0.1-0.9-0.2l-18-9C9.4,48.5,9,47.8,9,47v-9c0-1.1,0.9-2,2-2c0.3,0,0.6,0.1,0.9,0.2l18,9c0.7,0.3,1.1,1,1.1,1.8v9
	C31,57.1,30.1,58,29,58C29,58,29,58,29,58z M13,45.8l14,7v-4.5l-14-7L13,45.8z"/>
</svg>
