<?xml version="1.0" encoding="utf-8"?>
<!-- Generator: Adobe Illustrator 24.0.1, SVG Export Plug-In . SVG Version: 6.00 Build 0)  -->
<svg version="1.1" id="Слой_1" xmlns="http://www.w3.org/2000/svg" xmlns:xlink="http://www.w3.org/1999/xlink" x="0px" y="0px"
	 viewBox="0 0 26 25" style="enable-background:new 0 0 26 25;" xml:space="preserve">
<style type="text/css">
	.st0{fill:#701DBB;}
</style>
<path class="st0" d="M7,23.3c-0.4,0-0.7-0.3-0.7-0.7l-0.1-5.9l-5.7-2.9C0.2,13.7,0,13.3,0.2,13c0,0,0,0,0-0.1l0,0c0,0,0,0,0,0
	c0.1-0.1,0.2-0.2,0.3-0.2L24.7,0.4c0.3-0.2,0.7-0.1,0.9,0.3c0,0,0,0.1,0,0.1c0.1,0.2,0,0.3,0,0.5l-9.1,21.4c0,0.1-0.1,0.1-0.1,0.2h0
	c0,0,0,0,0,0c0,0,0,0,0,0c-0.1,0.1-0.3,0.2-0.4,0.2l0,0h0c-0.1,0-0.3,0-0.4-0.1l-5.1-3.6L7.5,23C7.4,23.2,7.2,23.3,7,23.3z
	 M11.3,18.4l3.9,2.7L15,13.9L11.3,18.4z M7.5,16.7l0.1,4.1l2.2-2.7l0,0c0,0,0,0,0,0l9.6-11.4L14,11.2c0,0,0,0,0,0L7.5,16.7z
	 M16.3,12.4l0.2,7l6.1-14.4L16.3,12.4z M2.8,13.6l3.9,2l4.3-3.6L2.8,13.6z M20.1,4.3L5.6,11.6l7.6-1.5L20.1,4.3z"/>
</svg>
