<?xml version="1.0" encoding="utf-8"?>
<!-- Generator: Adobe Illustrator 24.0.1, SVG Export Plug-In . SVG Version: 6.00 Build 0)  -->
<svg version="1.1" id="Слой_1" xmlns="http://www.w3.org/2000/svg" xmlns:xlink="http://www.w3.org/1999/xlink" x="0px" y="0px"
	 viewBox="0 0 23 23" style="enable-background:new 0 0 23 23;" xml:space="preserve">
<style type="text/css">
	.st0{fill:#701DBB;}
</style>
<path class="st0" d="M11.5,0C17.9,0,23,5.1,23,11.5S17.9,23,11.5,23C5.1,23,0,17.8,0,11.5S5.1,0,11.5,0z M2.1,11.5
	c0,5.1,4.2,9.3,9.3,9.3c0,0,0,0,0,0c5.1,0,9.3-4.2,9.3-9.3s-4.2-9.3-9.3-9.3C6.3,2.2,2.1,6.4,2.1,11.5C2.1,11.5,2.1,11.5,2.1,11.5z
	 M14.1,13.8h-3.5c-0.5,0-0.9-0.4-0.9-0.9c0,0,0,0,0,0V7.6c0-0.5,0.4-0.9,0.8-0.9c0.5,0,0.9,0.4,0.9,0.8c0,0,0,0,0,0.1V12h2.6
	c0.5,0,0.9,0.4,0.9,0.9C15,13.4,14.6,13.8,14.1,13.8z"/>
</svg>
