<svg xmlns="http://www.w3.org/2000/svg" width="45" height="70" viewBox="0 0 45 70"><defs><linearGradient id="33vba" x1="22" x2="23" y1="70" y2="-.01" gradientUnits="userSpaceOnUse"><stop offset="0" stop-opacity=".27"/><stop offset="1" stop-color="#fff" stop-opacity=".27"/></linearGradient></defs><g><g opacity="-1"><path fill="#6017a3" d="M22.5 69.996L1.846 31.32A22.285 22.285 0 0 1 0 22.41C0 10.029 10.074-.01 22.5-.01S45 10.028 45 22.41c0 3.247-.693 6.334-1.94 9.12zm0-59.24c-5.964 0-10.8 4.818-10.8 10.763 0 5.944 4.836 10.763 10.8 10.763 5.965 0 10.8-4.82 10.8-10.763 0-5.945-4.835-10.763-10.8-10.763z"/><path fill="url(#33vba)" d="M22.5 69.996L1.846 31.32A22.285 22.285 0 0 1 0 22.41C0 10.029 10.074-.01 22.5-.01S45 10.028 45 22.41c0 3.247-.693 6.334-1.94 9.12zm0-59.24c-5.964 0-10.8 4.818-10.8 10.763 0 5.944 4.836 10.763 10.8 10.763 5.965 0 10.8-4.82 10.8-10.763 0-5.945-4.835-10.763-10.8-10.763z"/></g></g></svg>