<?xml version="1.0" encoding="utf-8"?>
<!-- Generator: Adobe Illustrator 24.0.1, SVG Export Plug-In . SVG Version: 6.00 Build 0)  -->
<svg version="1.1" id="Слой_1" xmlns="http://www.w3.org/2000/svg" xmlns:xlink="http://www.w3.org/1999/xlink" x="0px" y="0px"
	 viewBox="0 0 9 9" style="enable-background:new 0 0 9 9;" xml:space="preserve">
<style type="text/css">
	.st0{fill:#FFFFFF;}
</style>
<path class="st0" d="M0,3.1c3.3,0,5.9,2.7,5.9,5.9H4.2c0-1.1-0.4-2.2-1.2-3C2.2,5.2,1.1,4.8,0,4.8V3.1z M0,0c5,0,9,4,9,9H7.3
	C7.3,5,4,1.7,0,1.7L0,0z M2.4,7.8C2.4,8.5,1.9,9,1.2,9S0,8.5,0,7.8s0.5-1.2,1.2-1.2C1.9,6.6,2.4,7.1,2.4,7.8z"/>
</svg>
