<?xml version="1.0" encoding="utf-8"?>
<!-- Generator: Adobe Illustrator 24.0.1, SVG Export Plug-In . SVG Version: 6.00 Build 0)  -->
<svg version="1.1" id="Слой_1" xmlns="http://www.w3.org/2000/svg" xmlns:xlink="http://www.w3.org/1999/xlink" x="0px" y="0px"
	 viewBox="0 0 26 18" style="enable-background:new 0 0 26 18;" xml:space="preserve">
<style type="text/css">
	.st0{fill:#FFFFFF;}
</style>
<path class="st0" d="M26,8.3c-0.9,0.2-2.2,0-2.9-0.3c1.5-0.1,2.5-0.8,2.8-1.7c-0.5,0.3-2.2,0.7-3.1,0.3c0-0.2-0.1-0.4-0.1-0.6
	c-0.7-2.5-3-4.6-5.5-4.3c0.2-0.1,0.4-0.2,0.6-0.2c0.3-0.1,1.9-0.4,1.6-0.9c-0.2-0.5-2.2,0.4-2.5,0.5c0.5-0.2,1.3-0.5,1.4-1.1
	c-0.8,0.1-1.5,0.4-2,1c0.2-0.2,0.4-0.5,0.4-0.8c-2,1.3-3.1,3.8-4.1,6.3c-0.7-0.7-1.4-1.3-2-1.6C8.9,4,6.9,3.1,3.9,2
	C3.8,3,4.4,4.3,6.1,5.2C5.7,5.2,5,5.3,4.5,5.4C4.7,6.6,5.4,7.6,7.4,8C6.5,8.1,6,8.3,5.6,8.7C6,9.6,7,10.5,8.8,10.3
	c-2,0.9-0.8,2.5,0.8,2.2c-2.8,2.9-7.1,2.7-9.6,0.3c6.5,9,20.8,5.3,22.9-3.3C24.5,9.5,25.4,8.9,26,8.3z"/>
</svg>
