<?xml version="1.0" encoding="utf-8"?>
<!-- Generator: Adobe Illustrator 24.0.1, SVG Export Plug-In . SVG Version: 6.00 Build 0)  -->
<svg version="1.1" id="Слой_1" xmlns="http://www.w3.org/2000/svg" xmlns:xlink="http://www.w3.org/1999/xlink" x="0px" y="0px"
	 viewBox="0 0 25.6 26" style="enable-background:new 0 0 25.6 26;" xml:space="preserve">
<style type="text/css">
	.st0{fill:#7D7D7D;}
</style>
<path class="st0" d="M12.8,26C5.7,26,0,20.2,0,13S5.7,0,12.8,0s12.8,5.8,12.8,13S19.8,26,12.8,26z M18.2,20c-0.9,2-2,3.4-3,4.4
	c2-0.4,3.9-1.4,5.3-2.8C19.8,21,19,20.5,18.2,20z M5,21.6c1.5,1.4,3.4,2.4,5.4,2.8c-1-1-2.2-2.4-3.1-4.5C6.6,20.3,5.8,20.9,5,21.6
	L5,21.6z M13.5,18.5v5.5c1-0.8,2.4-2.2,3.5-4.6C15.8,18.9,14.7,18.6,13.5,18.5L13.5,18.5z M8.6,19.3c1,2.5,2.6,4,3.5,4.8v-5.6
	C10.9,18.5,9.7,18.8,8.6,19.3z M18.6,18.8c1.2,0.6,2.2,1.3,2.8,1.8c1.7-1.9,2.6-4.4,2.8-6.9h-4.7C19.4,15.7,19.1,17.3,18.6,18.8z
	 M1.4,13.7c0.1,2.5,1.1,4.9,2.7,6.9c0.8-0.8,1.8-1.4,2.8-2c-0.4-1.4-0.7-3-0.8-4.9L1.4,13.7z M13.5,17.2c1.4,0.1,2.8,0.5,3.9,1
	c0.4-1.3,0.7-2.8,0.8-4.5h-4.7L13.5,17.2z M7.4,13.7c0.1,1.6,0.3,3.1,0.7,4.3c1.3-0.5,2.6-0.8,4-0.9v-3.4H7.4z M19.5,12.3h4.7
	c-0.1-2.5-1.1-4.9-2.7-6.9c-0.8,0.8-1.8,1.4-2.8,2C19.1,8.8,19.4,10.4,19.5,12.3z M13.5,12.3h4.7c-0.1-1.6-0.3-3.1-0.7-4.3
	c-1.3,0.5-2.6,0.8-4,0.9L13.5,12.3z M7.4,12.3h4.7V8.8c-1.4-0.1-2.8-0.5-3.9-1C7.8,9.1,7.5,10.6,7.4,12.3z M1.4,12.3h4.7
	c0.1-2,0.4-3.7,0.9-5.1C6,6.7,5,6.1,4.1,5.4C2.5,7.3,1.5,9.8,1.4,12.3z M13.5,1.9v5.6c1.2,0,2.4-0.3,3.5-0.8
	C16,4.2,14.4,2.7,13.5,1.9z M8.6,6.6c1.1,0.5,2.3,0.8,3.5,0.9V1.9C11.1,2.7,9.7,4.2,8.6,6.6z M15.1,1.6c1,1,2.2,2.4,3.1,4.5
	c0.8-0.4,1.5-1,2.3-1.7C19,3,17.2,2.1,15.1,1.6L15.1,1.6z M5.1,4.4C5.8,5,6.6,5.5,7.4,6c0.9-2,2-3.4,3-4.4C8.4,2.1,6.6,3,5.1,4.4
	L5.1,4.4z"/>
</svg>
